# xmcd CD database file
#
# Track frame offsets:
#	150
#	23000
#	39870
#	53722
#	78090
#	96132
#	112967
#	135810
#	151950
#	184120
#	197717
#	218170
#
# Disc length: 3170 seconds
#
# Revision: 0
# Processed by: cddbd v1.4PL0 Copyright (c) Steve Scherf et al.
# Submitted via: CDex 1.50Beta7
#
DISCID=870c600c
DTITLE=White Hot and Blue - One Nite Stand - Live I
DYEAR=1992
DGENRE=Blues
TTITLE0=Rockin' and Rollin' Band
TTITLE1=Lookin' For That Women
TTITLE2=I'll Make Love To You Anytime
TTITLE3=Need Your Love So Bad
TTITLE4=Fool For Your Stockings
TTITLE5=Night Patrol
TTITLE6=Free Man
TTITLE7=I Hate Everybody
TTITLE8=Sure Got Cold After The Rain Fell
TTITLE9=Cant't Tear It Up Enuff
TTITLE10=Pride and Joy
TTITLE11=I Love My Baby
EXTD=YEAR: 1992
EXTT0=
EXTT1=
EXTT2=
EXTT3=
EXTT4=
EXTT5=
EXTT6=
EXTT7=
EXTT8=
EXTT9=
EXTT10=
EXTT11=
PLAYORDER=
